<?xml version="1.0" encoding="iso-8859-1"?>
<!-- Generator: Adobe Illustrator 19.0.0, SVG Export Plug-In . SVG Version: 6.00 Build 0)  -->
<svg version="1.1" id="Capa_1" xmlns="http://www.w3.org/2000/svg" xmlns:xlink="http://www.w3.org/1999/xlink" x="0px" y="0px"
	 viewBox="0 0 512 512" style="enable-background:new 0 0 512 512;" xml:space="preserve">
<path style="fill:#1B3466;" d="M512,256c0,39.299-8.85,76.528-24.68,109.808c-11.483,24.148-26.634,46.205-44.732,65.463
	c-28.108,29.915-63.321,53.06-102.954,66.759C313.428,507.079,285.288,512,256,512s-57.428-4.921-83.634-13.97
	c-39.654-13.699-74.888-36.874-103.006-66.811c-18.108-19.278-33.259-41.357-44.732-65.526C8.84,332.445,0,295.257,0,256
	C0,114.615,114.615,0,256,0S512,114.615,512,256z"/>
<path style="fill:#03306C;" d="M499.702,288.925c0,26.864-4.347,52.715-12.382,76.884c-11.483,24.148-26.634,46.205-44.732,65.463
	c-28.108,29.915-63.321,53.06-102.954,66.759C313.428,507.079,285.288,512,256,512s-57.428-4.921-83.634-13.97
	c-39.654-13.699-74.888-36.874-103.006-66.811c-18.108-19.278-33.259-41.357-44.732-65.526c-8.004-24.137-12.34-49.946-12.34-76.769
	C12.288,154.321,121.396,45.213,256,45.213C390.593,45.213,499.702,154.321,499.702,288.925z"/>
<path style="fill:#75C5F2;" d="M490.674,288.925c0,53.53-17.92,102.87-48.086,142.346c-28.108,29.915-63.321,53.06-102.954,66.759
	C313.428,507.079,285.288,512,256,512s-57.428-4.921-83.634-13.97c-39.654-13.699-74.888-36.874-103.006-66.811
	c-30.135-39.476-48.044-88.795-48.044-142.294C21.316,159.305,126.38,54.241,256,54.241
	C385.609,54.241,490.674,159.305,490.674,288.925z"/>
<path style="fill:#1B3466;" d="M481.155,288.925c0,94.793-58.587,175.909-141.521,209.105C313.428,507.079,285.288,512,256,512
	s-57.428-4.921-83.634-13.97C89.422,464.833,30.845,383.718,30.845,288.925C30.845,164.571,131.647,63.77,256,63.77
	C380.343,63.77,481.155,164.571,481.155,288.925z"/>
<circle style="fill:#FFFEFF;" cx="256" cy="288.925" r="218.331"/>
<circle style="fill:#1B3466;" cx="256" cy="288.925" r="150.507"/>
<circle style="fill:#FFFFFF;" cx="256" cy="288.925" r="143.956"/>
<circle style="fill:#75C5F2;" cx="256" cy="288.925" r="135.398"/>
<path style="fill:#1B3466;" d="M252.532,444.997c-39.659-13.365-70.218-34.167-90.829-61.828
	c-53.158-71.346-18.486-196.655-16.985-201.955l1.773-6.256l13.958-2.026c31.448-4.563,63.507-6.876,95.285-6.876
	s63.836,2.313,95.284,6.876l13.959,2.026l1.773,6.256c1.502,5.3,36.174,130.61-16.985,201.955
	c-20.611,27.661-51.169,48.462-90.829,61.828l-3.204,1.079L252.532,444.997z"/>
<path style="fill:#FCBD00;" d="M161.891,182.857l-7.523,1.092c0,0-35.437,125.029,15.378,193.228
	c22.899,30.733,56.253,48.295,85.989,58.316c29.736-10.021,63.09-27.583,85.989-58.316c50.814-68.198,15.378-193.228,15.378-193.228
	l-7.523-1.092C287.343,173.826,224.127,173.826,161.891,182.857z"/>
<path style="fill:#A5D6F2;" d="M360.59,303.152c-1.103,10.09-2.899,20.138-5.586,29.827c-2.778,9.939-6.489,19.497-11.383,28.322
	c-2.257,4.052-4.754,7.963-7.522,11.684c-3.18,4.262-6.63,8.354-10.371,12.256c-5.616,5.907-11.854,11.392-18.714,16.478h-0.01
	c-7.612,5.636-15.966,10.742-25.052,15.314c-7.702,3.891-15.936,7.392-24.682,10.5c-0.512,0.181-1.023,0.362-1.535,0.541
	c-35.212-12.256-62.24-30.78-80.363-55.09c-14.662-19.687-21.743-44.63-24.491-69.833h209.71V303.152z"/>
<path style="fill:#FFFFFF;" d="M361.429,293.601c3.08-45.403-6.569-89.615-9.956-103.375l-2.902-0.422
	c-30.641-4.446-61.875-6.701-92.836-6.701s-62.195,2.255-92.836,6.701l-2.902,0.422c-3.387,13.76-13.036,57.972-9.956,103.375
	H361.429z"/>
<g>
	<path style="fill:#75C5F2;" d="M343.621,361.301c-2.257,4.052-4.754,7.963-7.522,11.684c-3.18,4.262-6.63,8.354-10.371,12.256
		l-68.229-82.088h37.79L343.621,361.301z"/>
	<path style="fill:#75C5F2;" d="M360.59,303.152c-1.103,10.09-2.899,20.138-5.586,29.827l-24.792-29.827H360.59z"/>
	<path style="fill:#75C5F2;" d="M307.005,401.718c-7.612,5.636-15.966,10.742-25.052,15.314l-94.655-113.881h37.79L307.005,401.718z
		"/>
	<path style="fill:#75C5F2;" d="M257.271,427.534c-0.512,0.181-1.023,0.362-1.535,0.541c-35.212-12.256-62.24-30.78-80.363-55.09
		c-14.662-19.687-21.743-44.63-24.491-69.833h2.999L257.271,427.534z"/>
</g>
<g>
	<path style="fill:#DD1505;" d="M245.794,329.038L245.794,329.038c-2.438,7.118-9.078,11.942-16.6,12.061l0,0
		c-6.067,0.096-7.346,8.604-1.575,10.478l28.628,9.302v-30.101C256.248,324.71,247.761,323.298,245.794,329.038z"/>
	<path style="fill:#DD1505;" d="M283.301,341.099L283.301,341.099c-7.523-0.119-14.163-4.943-16.6-12.061l0,0
		c-1.965-5.741-10.452-4.328-10.452,1.74v30.101l28.628-9.302C290.647,349.702,289.368,341.195,283.301,341.099z"/>
	<path style="fill:#DD1505;" d="M283.42,380.496L283.42,380.496c-2.212-7.191,0.325-14.997,6.34-19.516l0,0
		c4.853-3.644,0.886-11.279-4.885-9.403l-28.628,9.302l17.693,24.352C277.507,390.141,285.204,386.296,283.42,380.496z"/>
	<path style="fill:#DD1505;" d="M245.988,392.784L245.988,392.784c6.156-4.326,14.363-4.326,20.52,0l0,0
		c4.964,3.489,11-2.643,7.433-7.551l-17.693-24.352l-17.693,24.352C234.988,390.141,241.022,396.272,245.988,392.784z"/>
	<path style="fill:#DD1505;" d="M222.734,360.981L222.734,360.981c6.017,4.518,8.552,12.324,6.34,19.516l0,0
		c-1.784,5.799,5.913,9.644,9.479,4.736l17.693-24.352l-28.628-9.302C221.849,349.702,217.882,357.337,222.734,360.981z"/>
</g>
<g>
	<path style="fill:#1B3466;" d="M256.805,328.328v-0.01c-0.146-0.387-0.334-0.752-0.554-1.087c-1.024-1.546-2.675-2.466-4.326-2.738
		c-0.366-0.063-0.731-0.094-1.118-0.094c-2.048,0-4.221,0.94-5.444,3.145c-0.199,0.355-0.376,0.742-0.522,1.17
		c-2.288,6.698-8.589,11.274-15.663,11.379c-3.73,0.063-5.799,2.769-6.207,5.433c-0.021,0.157-0.042,0.313-0.052,0.481
		c0,0,0,0,0,0.01c-0.115,1.526,0.293,3.166,1.348,4.472c0.24,0.303,0.522,0.596,0.846,0.857c0.596,0.491,1.327,0.899,2.194,1.181
		l1.411,0.46l1.641,0.533l3.741,1.212l0.042,0.021l7.074,2.299l7.879,2.55l0.972,0.313v0.01l0.961,0.313l3.605,1.16l0.616,0.209
		l0.366,0.115l0.01,0.01h0.01l0.617,0.199l0.387,0.125l0.616,0.199v-31.483C257.254,329.853,257.097,329.049,256.805,328.328z
		 M255.248,359.497l-3.605-1.17l-0.972-0.313l-0.951-0.313l-14.9-4.838l-3.845-1.254l-3.041-0.982
		c-2.602-0.846-3.229-3.114-2.978-4.807c0.261-1.682,1.526-3.678,4.253-3.72c7.92-0.125,14.963-5.245,17.533-12.737
		c0.01-0.031,0.021-0.073,0.042-0.105c0.909-2.497,3.145-3.072,4.807-2.79c1.682,0.282,3.657,1.578,3.657,4.305L255.248,359.497
		L255.248,359.497z"/>
	<path style="fill:#1B3466;" d="M289.52,345.527c-0.397-2.664-2.476-5.371-6.207-5.433c-7.074-0.104-13.375-4.681-15.663-11.379
		c-1.212-3.532-4.43-4.66-7.074-4.221c-1.651,0.272-3.302,1.191-4.326,2.738c-0.219,0.334-0.408,0.7-0.554,1.087v0.01
		c-0.293,0.721-0.449,1.526-0.449,2.445v31.483l0.606-0.199l0.397-0.125l0.616-0.199v-0.01l0.387-0.115l0.616-0.199v-0.01
		l3.605-1.17l0.961-0.303v-0.01l0.972-0.313l6.76-2.194h0.01l8.255-2.685c0.01,0,0.021,0,0.031-0.01l3.678-1.191l3.041-0.993
		c0.867-0.282,1.599-0.69,2.194-1.181c0.324-0.261,0.606-0.554,0.846-0.857C289.405,349.038,289.771,347.178,289.52,345.527z
		 M284.568,350.626l-3.041,0.993l-3.793,1.223c-0.031,0.01-0.063,0.021-0.094,0.031l-8.84,2.873l-6.019,1.954l-0.951,0.313
		l-0.972,0.313l-3.605,1.17v-28.724c0-2.727,1.964-4.023,3.647-4.305c0.251-0.042,0.512-0.063,0.773-0.063
		c1.557,0,3.323,0.752,4.075,2.957c2.57,7.492,9.613,12.612,17.533,12.737c2.738,0.042,4.002,2.038,4.253,3.72
		C287.786,347.512,287.159,349.78,284.568,350.626z"/>
	<path style="fill:#1B3466;" d="M261.475,360.229v0.01l0.961-0.313L261.475,360.229z M257.87,361.409l3.605-1.17l-3.605,1.16
		V361.409z M292.195,353.75c-0.773-1.484-2.173-2.779-3.971-3.26c-0.376-0.105-0.773-0.178-1.181-0.188
		c-0.773-0.063-1.609,0.042-2.476,0.324l-3.041,0.993l-3.793,1.223c-0.031,0.01-0.063,0.021-0.094,0.031l-8.84,2.873l-6.019,1.954
		l-0.951,0.313l-0.972,0.313l-3.605,1.17l-0.616,0.199l-0.387,0.125h-0.01l-0.606,0.209l-0.387,0.115v0.01l-0.606,0.199h-0.021
		l0.387,0.533l0.24,0.334l0.366,0.502l0.01,0.01l0.23,0.324l0.387,0.533h0.01l2.215,3.051l0.606,0.836l0.596,0.815l9.206,12.675
		l0.136,0.199l2.236,3.062v0.01l1.881,2.581c0.543,0.742,1.16,1.317,1.818,1.735c0.345,0.219,0.7,0.397,1.066,0.533
		c0.711,0.272,1.442,0.397,2.163,0.397c1.045,0,2.069-0.261,2.967-0.711c1.933-0.961,3.553-2.957,3.553-5.559
		c0-0.637-0.094-1.306-0.313-2.017c-0.658-2.142-0.867-4.347-0.658-6.489c0.428-4.639,2.779-9.017,6.646-11.922
		C293.345,359.539,293.428,356.133,292.195,353.75z M281.997,371.628c-0.24,1.202-0.366,2.424-0.366,3.657
		c0,1.839,0.272,3.688,0.825,5.507c0.805,2.612-0.69,4.43-2.215,5.193s-3.887,0.867-5.486-1.348l-1.881-2.581l-2.341-3.218
		l-0.063-0.084l-9.185-12.643l-0.596-0.815v-0.01l-0.596-0.825h-0.01l-2.215-3.051l3.605-1.17l0.961-0.313l0.972-0.313
		c0-0.01,0-0.01,0-0.01l2.351-0.752l4.409-1.442h0.01l8.255-2.685c0.01,0,0.021,0,0.031-0.01l3.678-1.191l3.041-0.993
		c2.602-0.846,4.441,0.627,5.224,2.142c0.794,1.515,0.93,3.866-1.254,5.507C285.351,363.039,282.875,367.156,281.997,371.628z
		 M257.87,361.399v0.01l3.605-1.17L257.87,361.399z M261.475,360.229v0.01l0.961-0.313L261.475,360.229z"/>
	<path style="fill:#1B3466;" d="M263.408,359.602c0,0,0,0,0,0.01l2.351-0.763L263.408,359.602z M261.475,360.239l0.961-0.313
		l-0.961,0.303V360.239z M257.87,361.409l3.605-1.17l-3.605,1.16V361.409z M283.721,355.359c-0.366-0.7-0.899-1.348-1.578-1.839
		c-0.376-0.272-0.784-0.502-1.233-0.658c-0.93-0.324-1.996-0.376-3.176-0.021c-0.031,0.01-0.063,0.021-0.094,0.031l-8.84,2.873
		l-6.019,1.954l-0.951,0.313l-0.972,0.313l-3.605,1.17l-0.616,0.199l-0.387,0.125h-0.01l-0.606,0.209l-0.387,0.115v0.01
		l-0.606,0.199h-0.021l0.387,0.533l0.24,0.334l0.366,0.502l0.01,0.01l0.23,0.324l0.387,0.533h0.01l2.215,3.051l0.606,0.836
		l0.596,0.815l9.206,12.675c0.742,1.003,1.651,1.609,2.602,1.881h0.01c0.46,0.146,0.92,0.209,1.379,0.209h0.01
		c0.836,0,1.641-0.209,2.351-0.564c1.536-0.773,2.832-2.361,2.832-4.43c0-0.502-0.073-1.034-0.251-1.599
		c-0.867-2.821-0.69-5.789,0.387-8.411c0.826-2.058,2.215-3.908,4.065-5.298C284.641,359.978,284.703,357.261,283.721,355.359z
		 M281.057,360.155c-1.86,1.39-3.302,3.187-4.294,5.183c-0.982,1.996-1.505,4.211-1.505,6.457c0,1.421,0.209,2.853,0.637,4.253
		c0.564,1.839-0.491,3.114-1.567,3.647c-1.045,0.533-2.664,0.616-3.793-0.857l-0.063-0.084l-9.185-12.643l-0.596-0.815v-0.01
		l-0.596-0.825h-0.01l-2.215-3.051l3.605-1.17l0.961-0.313l0.972-0.313l2.351-0.763l4.409-1.442h0.01l8.087-2.623
		c1.818-0.596,3.114,0.439,3.668,1.505C282.488,357.345,282.593,359.006,281.057,360.155z M257.87,361.399v0.01l3.605-1.17
		L257.87,361.399z M261.475,360.229v0.01l0.961-0.313L261.475,360.229z M263.408,359.602c0,0,0,0,0,0.01l2.351-0.763
		L263.408,359.602z"/>
	<path style="fill:#1B3466;" d="M256.24,362.59l-2.205,3.051l2.215-3.051H256.24z M270.535,378.838l-0.063-0.084l-9.185-12.643
		l-0.596-0.815v-0.01l-0.596-0.825h-0.01l-2.215-3.051v-0.01l-0.376-0.522l-0.24-0.324l-0.376-0.522l-0.24-0.334l-0.387-0.522
		l-0.387,0.533l-0.23,0.324l-0.387,0.522l-0.24,0.334l-0.376,0.512l-0.01,0.01l-2.215,3.051l-0.596,0.825h-0.01l-0.585,0.825
		c-0.01,0-0.01,0-0.01,0l-5.392,7.429h-0.01l-3.803,5.245c-0.731,1.014-1.014,2.058-0.982,3.051v0.01c0,0.481,0.084,0.94,0.23,1.379
		v0.01c0.261,0.784,0.711,1.494,1.264,2.058c0.909,0.919,2.205,1.567,3.626,1.567c0.94,0,1.933-0.293,2.905-0.972
		c1.599-1.128,3.406-1.839,5.266-2.121c3.145-0.491,6.437,0.219,9.143,2.121c0.972,0.679,1.975,0.972,2.915,0.972
		c1.421,0,2.717-0.648,3.626-1.567c0.554-0.564,0.993-1.275,1.254-2.058v-0.01c0.146-0.439,0.23-0.899,0.23-1.379v-0.01
		C271.506,380.865,271.235,379.841,270.535,378.838z M268.56,383.895c-0.846,0.857-2.382,1.463-3.96,0.355
		c-2.497-1.755-5.423-2.633-8.349-2.633c-1.139,0-2.278,0.136-3.396,0.397c-1.745,0.418-3.438,1.16-4.963,2.236
		c-1.567,1.108-3.114,0.502-3.95-0.355c-0.805-0.815-1.369-2.257-0.46-3.73l0.136-0.199l3.511-4.827v-0.01l5.695-7.837
		c0.01,0,0.01,0,0.01,0l0.596-0.815v-0.01l0.596-0.825h0.01l2.215-3.051l2.215,3.051l0.606,0.836l0.596,0.815l9.206,12.675
		l0.136,0.199C269.918,381.649,269.354,383.08,268.56,383.895z M256.24,362.59l-2.205,3.051l2.215-3.051H256.24z"/>
	<path style="fill:#1B3466;" d="M257.86,360.354l-0.606-0.199l-0.376-0.125l-0.627-0.199v-0.01h-0.01l-0.376-0.115l-0.616-0.209
		l-3.605-1.17l-0.972-0.313l-0.951-0.313l-14.9-4.838c-1.202-0.387-2.309-0.334-3.239,0c-0.449,0.167-0.857,0.387-1.223,0.658
		c-0.251,0.178-0.481,0.387-0.69,0.606c-0.366,0.366-0.658,0.794-0.888,1.233c-0.376,0.721-0.606,1.567-0.606,2.435
		c0,1.4,0.596,2.863,2.058,3.96c4.211,3.166,5.998,8.673,4.451,13.709c-0.867,2.832,0.669,5.068,2.581,6.029
		c0.711,0.355,1.515,0.564,2.351,0.564h0.01c0.46,0,0.93-0.063,1.379-0.209h0.01c0.951-0.272,1.86-0.878,2.602-1.881l3.511-4.827
		v-0.01l5.695-7.837c0.01,0,0.01,0,0.01,0l0.596-0.815v-0.01l0.596-0.825h0.01l2.205-3.051h0.01l0.387-0.533l0.23-0.324v-0.01
		l0.387-0.522l0.24-0.324l0.376-0.522L257.86,360.354L257.86,360.354z M238.164,379.695c-1.076-0.533-2.121-1.808-1.557-3.647
		c0.428-1.4,0.637-2.832,0.637-4.242c0-4.504-2.09-8.861-5.81-11.651c-1.536-1.149-1.432-2.811-0.878-3.866
		c0.104-0.209,0.24-0.408,0.408-0.606c0.502-0.606,1.254-1.076,2.226-1.076c0.293,0,0.606,0.042,0.951,0.146l7.074,2.299l7.879,2.56
		l0.961,0.313h0.01l0.961,0.313l3.594,1.17l-2.215,3.051l-0.596,0.825h-0.01l-0.596,0.825l-5.392,7.429h-0.01l-3.803,5.245
		C240.87,380.311,239.229,380.238,238.164,379.695z"/>
	<path style="fill:#1B3466;" d="M256.251,334.952c-0.282-0.376-0.627-0.7-1.003-0.972c-0.679-0.491-1.452-0.794-2.236-0.93
		c-0.282-0.052-0.585-0.073-0.878-0.073c-0.648,0-1.317,0.115-1.944,0.376c-1.212,0.481-2.267,1.473-2.821,3.062
		c-1.703,4.974-6.384,8.38-11.651,8.464c-2.968,0.042-4.618,2.205-4.942,4.315c-0.115,0.784-0.063,1.62,0.199,2.414
		c0.136,0.439,0.334,0.857,0.606,1.254c0.543,0.805,1.369,1.473,2.518,1.87l0.042,0.021l7.074,2.299l7.879,2.55c0,0,0,0,0,0.01
		l0.961,0.313h0.01l0.961,0.313l3.605,1.16l0.616,0.209l0.366,0.115l0.01,0.01h0.01l0.617,0.199l0.387,0.125l0.616,0.199v-24.2
		C257.254,336.792,256.867,335.747,256.251,334.952z M232.761,349.497c0.178-1.191,1.066-2.581,2.988-2.612
		c6.113-0.094,11.546-4.044,13.521-9.822c0.439-1.285,1.379-1.87,2.309-2.027c0.376-0.073,0.752-0.063,1.097-0.01
		c1.181,0.199,2.57,1.108,2.57,3.03v21.441l-3.605-1.17l-0.972-0.313l-0.951-0.313l-14.9-4.838
		C233.012,352.256,232.584,350.678,232.761,349.497z"/>
	<path style="fill:#1B3466;" d="M281.715,349.194c-0.313-2.111-1.964-4.274-4.942-4.315c-5.266-0.084-9.947-3.49-11.651-8.464
		c-0.961-2.811-3.521-3.72-5.632-3.365c-0.784,0.136-1.557,0.439-2.236,0.93c-0.376,0.272-0.721,0.596-1.003,0.972
		c-0.616,0.794-1.003,1.839-1.003,3.103v24.2l0.606-0.199l0.397-0.125l0.616-0.199l0.387-0.125l0.616-0.199v-0.01l3.605-1.16v-0.01
		l0.961-0.303l0.972-0.313c0-0.01,0-0.01,0-0.01l2.351-0.752l4.409-1.442h0.01l8.087-2.623c0.063-0.021,0.115-0.042,0.167-0.063
		c0.01,0,0.021,0,0.031-0.01c1.108-0.397,1.912-1.066,2.445-1.849c0.272-0.387,0.47-0.805,0.616-1.243
		C281.778,350.824,281.83,349.978,281.715,349.194z M277.64,352.872l-8.84,2.873l-6.019,1.954l-0.951,0.313l-0.972,0.313
		l-3.605,1.17v-21.441c0-1.923,1.379-2.832,2.56-3.03c0.178-0.031,0.355-0.042,0.543-0.042c1.097,0,2.341,0.522,2.863,2.079
		c0.993,2.894,2.853,5.319,5.214,7.043c2.372,1.724,5.256,2.727,8.307,2.779c1.923,0.031,2.811,1.421,2.988,2.612
		c0.178,1.17-0.251,2.727-1.996,3.344C277.703,352.852,277.671,352.862,277.64,352.872z"/>
	<path style="fill:#1B3466;" d="M256.24,362.59l-2.205,3.051l2.215-3.051H256.24z M247.129,375.129l5.705-7.837c0,0,0,0-0.01,0
		L247.129,375.129z M275.832,386.905v-0.01c-0.188-0.752-0.533-1.515-1.076-2.257l-1.881-2.581l-2.341-3.218l-0.063-0.084
		l-9.185-12.643l-0.596-0.815v-0.01l-0.596-0.825h-0.01l-2.215-3.051v-0.01l-0.376-0.522l-0.24-0.324l-0.376-0.522l-0.24-0.334
		l-0.387-0.522l-0.387,0.533l-0.23,0.324l-0.387,0.522l-0.24,0.334l-0.376,0.512l-0.01,0.01l-2.215,3.051l-0.596,0.825v0.01
		l-0.596,0.815c-0.01,0-0.01,0-0.01,0l-5.392,7.429h-0.01l-3.803,5.245l-2.372,3.271h-0.01l-1.87,2.581
		c-0.543,0.742-0.888,1.505-1.076,2.257c0,0,0,0-0.01,0v0.01c-0.104,0.397-0.167,0.794-0.178,1.191
		c-0.094,1.86,0.711,3.574,1.881,4.765c1.128,1.149,2.759,1.954,4.545,1.954c1.181,0,2.435-0.355,3.657-1.212
		c4.075-2.863,9.143-3.709,13.803-2.539c1.954,0.491,3.845,1.337,5.559,2.539c1.223,0.857,2.476,1.223,3.668,1.223
		c1.776,0,3.417-0.815,4.545-1.964c1.17-1.191,1.975-2.915,1.87-4.775C275.999,387.699,275.937,387.302,275.832,386.905z
		 M267.086,391.962c-2.633-1.849-5.632-2.947-8.704-3.302c0,0,0,0-0.01,0c-0.7-0.073-1.411-0.115-2.121-0.115
		c-3.803,0-7.596,1.139-10.836,3.417c-2.236,1.567-4.43,0.711-5.632-0.512c-1.191-1.212-2.027-3.417-0.418-5.632l1.881-2.581v-0.01
		l2.236-3.062l0.136-0.199l3.511-4.827v-0.01l5.705-7.837l0.596-0.815v-0.01l0.596-0.825h0.01l2.215-3.051l2.215,3.051l0.606,0.836
		l0.596,0.815l9.206,12.675l0.136,0.199l2.236,3.062v0.01l1.881,2.581c1.609,2.215,0.784,4.42-0.418,5.632
		C271.506,392.673,269.322,393.529,267.086,391.962z M252.824,367.292l-5.695,7.837l5.705-7.837
		C252.834,367.292,252.834,367.292,252.824,367.292z M256.24,362.59l-2.205,3.051l2.215-3.051H256.24z"/>
	<path style="fill:#1B3466;" d="M257.86,360.354l-0.606-0.199l-0.376-0.125l-0.627-0.199v-0.01h-0.01l-0.376-0.115l-0.616-0.209
		l-3.605-1.17l-0.972-0.313l-0.951-0.313l-14.9-4.838l-3.845-1.254l-3.041-0.982c-0.491-0.157-0.972-0.261-1.432-0.303
		c-0.366-0.042-0.711-0.052-1.045-0.021c-0.418,0.01-0.815,0.084-1.191,0.188c-1.797,0.481-3.187,1.776-3.96,3.26
		c-0.47,0.909-0.752,1.964-0.752,3.051c0,1.766,0.731,3.594,2.581,4.984c5.653,4.253,8.067,11.651,5.977,18.411
		c-1.087,3.574,0.846,6.374,3.25,7.576c0.888,0.449,1.912,0.711,2.967,0.711c0.721,0,1.442-0.125,2.152-0.387
		c0.355-0.146,0.721-0.324,1.066-0.533c0.658-0.418,1.275-0.993,1.818-1.745l1.881-2.581v-0.01l2.236-3.062l0.136-0.199l3.511-4.827
		v-0.01l5.695-7.837c0.01,0,0.01,0,0.01,0l0.596-0.815v-0.01l0.596-0.825h0.01l2.205-3.051h0.01l0.387-0.533l0.23-0.324v-0.01
		l0.387-0.522l0.24-0.324l0.376-0.522L257.86,360.354L257.86,360.354z M251.81,365.286h-0.01l-0.596,0.825l-5.392,7.429h-0.01
		l-3.803,5.245l-2.372,3.271h-0.01l-1.87,2.581c-1.609,2.215-3.96,2.111-5.486,1.348c-1.536-0.763-3.03-2.581-2.226-5.193
		c2.33-7.576-0.366-15.851-6.698-20.616c-2.184-1.641-2.038-3.992-1.254-5.507s2.623-2.978,5.224-2.142l1.411,0.46l1.641,0.533
		l3.741,1.212l0.042,0.021l7.074,2.299l7.879,2.56l0.961,0.313h0.01l0.961,0.313l3.594,1.17l-2.215,3.051L251.81,365.286z"/>
	<path style="fill:#1B3466;" d="M297.357,353.134c-0.596-1.808-1.609-3.396-2.905-4.66c0.042-0.251,0.073-0.502,0.094-0.752
		c0.104-0.951,0.084-1.944-0.073-2.947c-0.805-5.392-5.047-9.289-10.407-9.665h-0.01c-0.219-0.021-0.439-0.031-0.658-0.031
		c-4.974-0.073-9.394-3.291-11.003-7.993c-1.609-4.671-5.81-7.701-10.71-7.701c-1.923,0-3.783,0.46-5.433,1.327
		c-1.609-0.846-3.459-1.327-5.433-1.327c-3.532,0-6.698,1.557-8.767,4.18c-0.836,1.024-1.494,2.205-1.944,3.521
		c-1.62,4.702-6.04,7.92-11.013,7.993c-4.441,0.073-8.202,2.539-10.021,6.301c-0.512,1.034-0.867,2.173-1.055,3.396
		c-0.188,1.275-0.178,2.518,0.021,3.699c-1.285,1.264-2.299,2.853-2.905,4.66c-1.567,4.692,0,9.665,3.992,12.664
		c3.971,2.978,5.663,8.182,4.201,12.925c-1.003,3.271-0.564,6.656,1.212,9.425c0,0,0,0.01,0.01,0.01
		c0.115,0.219,0.261,0.418,0.418,0.627c0.418,0.564,0.888,1.097,1.4,1.567l0.01,0.01c1.735,1.609,3.908,2.675,6.259,3.009
		c0.021,0.042,0.042,0.073,0.063,0.115c1.964,3.845,5.966,6.343,10.188,6.343c2.32,0,4.587-0.731,6.562-2.121
		c1.996-1.411,4.357-2.152,6.802-2.152c2.445,0,4.796,0.742,6.792,2.152c1.369,0.961,2.863,1.609,4.43,1.902h0.01
		c0.69,0.146,1.4,0.219,2.121,0.219c4.232,0,8.234-2.497,10.198-6.343c0.021-0.042,0.031-0.073,0.052-0.115
		c3.041-0.439,5.831-2.09,7.67-4.587c1.714-2.309,2.435-5.13,2.09-7.983v-0.01c-0.084-0.69-0.23-1.379-0.439-2.069
		c-1.463-4.744,0.219-9.947,4.2-12.925C297.367,362.799,298.924,357.825,297.357,353.134z M290.743,360.051
		c-0.146,0.178-0.303,0.345-0.481,0.512c-0.157,0.146-0.324,0.282-0.502,0.418c-0.512,0.387-0.993,0.794-1.452,1.212
		c-0.125,0.125-0.251,0.251-0.376,0.366c-0.125,0.125-0.251,0.251-0.366,0.376c-0.825,0.857-1.546,1.787-2.173,2.779
		c-0.146,0.219-0.282,0.449-0.397,0.669c-0.031,0.042-0.052,0.084-0.073,0.125c-0.157,0.272-0.303,0.543-0.439,0.826
		c-0.157,0.303-0.303,0.616-0.428,0.93c-0.136,0.303-0.251,0.606-0.366,0.909c-0.031,0.104-0.073,0.219-0.104,0.334
		c-0.167,0.47-0.313,0.951-0.428,1.442c-0.052,0.209-0.104,0.418-0.146,0.637c-0.073,0.345-0.136,0.69-0.188,1.045
		c-0.01,0.052-0.01,0.094-0.021,0.146c-0.042,0.334-0.084,0.669-0.115,1.003c-0.01,0.178-0.021,0.355-0.031,0.533
		c-0.021,0.313-0.031,0.627-0.031,0.94c0,1.755,0.261,3.521,0.794,5.245c0.178,0.585,0.261,1.16,0.261,1.693
		c0,0.387-0.042,0.763-0.125,1.118c-0.031,0.178-0.084,0.355-0.146,0.522c-0.094,0.282-0.209,0.543-0.355,0.794
		c-0.272,0.522-0.648,0.972-1.076,1.369c-0.251,0.23-0.533,0.439-0.825,0.627c-0.146,0.084-0.303,0.178-0.449,0.251
		c-0.313,0.157-0.637,0.282-0.972,0.387c-0.167,0.052-0.334,0.094-0.502,0.115c-0.146,0.031-0.293,0.063-0.449,0.073
		c-0.188,0.021-0.387,0.031-0.585,0.031c-0.387,0-0.773-0.042-1.16-0.125c-0.188-0.052-0.376-0.104-0.564-0.167
		c-0.188-0.073-0.376-0.157-0.554-0.24c-0.031-0.01-0.052-0.031-0.084-0.042v-0.01c-0.084-0.042-0.157-0.084-0.23-0.125
		s-0.146-0.084-0.219-0.136c-0.178-0.115-0.345-0.251-0.512-0.387c-0.167-0.146-0.324-0.303-0.481-0.47
		c-0.157-0.167-0.303-0.345-0.449-0.543c0.094,0.125,0.178,0.261,0.261,0.387c0.084,0.136,0.157,0.261,0.219,0.397
		c0.063,0.115,0.125,0.24,0.178,0.366c0.042,0.104,0.084,0.209,0.125,0.313c0.031,0.094,0.063,0.178,0.084,0.261
		c0.021,0.084,0.052,0.167,0.063,0.251c0.031,0.115,0.052,0.23,0.073,0.345c0,0.021,0.01,0.031,0.01,0.052
		c0.042,0.261,0.063,0.522,0.063,0.784c0,2.884-2.508,5.423-5.413,5.423c-1.014,0-2.079-0.313-3.093-1.024
		c-0.387-0.272-0.784-0.522-1.181-0.763c-0.397-0.24-0.805-0.46-1.223-0.658c-0.261-0.125-0.522-0.24-0.784-0.355
		c-0.784-0.345-1.588-0.627-2.403-0.846c-0.366-0.094-0.721-0.178-1.076-0.251c-0.104-0.021-0.199-0.042-0.293-0.063
		c-0.073-0.021-0.157-0.042-0.23-0.052c-0.125-0.021-0.261-0.042-0.387-0.052c-0.491-0.073-0.982-0.125-1.473-0.157
		c-0.073,0-0.157,0-0.23-0.01c-0.115-0.01-0.219-0.01-0.334-0.021c-0.209-0.01-0.428-0.021-0.648-0.021s-0.449,0.01-0.669,0.021
		h-0.063c-0.042,0-0.084,0.01-0.125,0.01c-0.209,0.01-0.418,0.021-0.616,0.042c-0.157,0.01-0.324,0.031-0.481,0.042
		c-0.24,0.031-0.47,0.052-0.7,0.094c-0.084,0.01-0.167,0.031-0.251,0.042c-0.261,0.042-0.522,0.094-0.784,0.146
		c-0.324,0.063-0.658,0.146-0.982,0.23c-0.825,0.219-1.63,0.502-2.414,0.846c-0.261,0.115-0.522,0.23-0.784,0.355
		c-0.418,0.199-0.815,0.418-1.223,0.658c-0.397,0.24-0.784,0.491-1.17,0.763c-1.024,0.711-2.079,1.024-3.103,1.024
		c-2.905,0-5.413-2.529-5.413-5.423c0-0.261,0.021-0.522,0.063-0.784c0.01-0.01,0.01-0.031,0.01-0.042
		c0-0.021,0.01-0.031,0.01-0.052c0.01-0.104,0.031-0.199,0.063-0.303c0.063-0.272,0.157-0.554,0.282-0.825
		c0.042-0.125,0.104-0.24,0.167-0.366c0.052-0.115,0.125-0.24,0.199-0.355c0.084-0.146,0.178-0.282,0.282-0.428
		c-0.104,0.157-0.219,0.293-0.334,0.428l-0.115,0.115c-0.157,0.167-0.313,0.324-0.481,0.47c-0.167,0.136-0.334,0.272-0.512,0.387
		c-0.136,0.094-0.282,0.178-0.439,0.261c0,0,0,0-0.01,0c-0.104,0.063-0.209,0.104-0.313,0.157c-0.104,0.052-0.219,0.094-0.324,0.136
		c-0.188,0.063-0.376,0.115-0.564,0.167c-0.376,0.084-0.763,0.125-1.149,0.125c-0.209,0-0.408-0.01-0.616-0.031
		c-0.146-0.021-0.282-0.042-0.428-0.073c-0.167-0.021-0.334-0.063-0.502-0.115c-0.334-0.104-0.658-0.23-0.961-0.387
		c-0.157-0.073-0.313-0.157-0.46-0.251c-0.293-0.188-0.575-0.397-0.825-0.627c-1.39-1.264-2.142-3.229-1.442-5.496
		c2.215-7.199-0.324-15.005-6.343-19.519c-1.766-1.327-2.361-3.177-2.121-4.911c0.01-0.115,0.031-0.219,0.052-0.324
		c0.031-0.178,0.073-0.345,0.125-0.512c0.042-0.157,0.094-0.324,0.167-0.481c0-0.01,0-0.021,0.01-0.031
		c0.052-0.136,0.115-0.282,0.188-0.418c0.01-0.021,0.021-0.052,0.031-0.073c0.073-0.146,0.157-0.282,0.24-0.418
		c0.073-0.115,0.146-0.23,0.23-0.334c0.052-0.084,0.115-0.157,0.178-0.23c0.073-0.105,0.157-0.199,0.251-0.293
		c0.073-0.084,0.157-0.167,0.24-0.23c0.512-0.502,1.128-0.899,1.818-1.139c0.146-0.052,0.293-0.104,0.449-0.136
		c0.01,0,0.021-0.01,0.042-0.01c0.157-0.042,0.313-0.073,0.481-0.094c0.115-0.021,0.23-0.042,0.355-0.042
		c0.125-0.021,0.251-0.021,0.376-0.021c0.533,0,1.097,0.084,1.682,0.272c0.031,0,0.063,0.01,0.094,0.021
		c-0.031-0.01-0.073-0.021-0.104-0.042c-0.209-0.073-0.408-0.146-0.596-0.24c-0.146-0.063-0.293-0.136-0.428-0.219
		c-0.251-0.136-0.481-0.303-0.69-0.47c-0.104-0.084-0.199-0.167-0.293-0.261c-0.021-0.01-0.031-0.021-0.052-0.042
		c-0.867-0.846-1.358-1.923-1.505-3.041v-0.01c-0.376-2.915,1.536-6.102,5.245-6.154c7.523-0.115,14.158-4.942,16.593-12.058
		c0.073-0.23,0.167-0.439,0.272-0.648c0.094-0.219,0.209-0.418,0.334-0.616c0.084-0.136,0.178-0.272,0.282-0.397
		c0.073-0.094,0.146-0.188,0.24-0.282c0.084-0.104,0.178-0.209,0.282-0.303c0.408-0.376,0.857-0.679,1.327-0.899
		c0.01,0,0.01,0,0.01,0c0.115-0.052,0.23-0.104,0.355-0.146c0.125-0.052,0.251-0.094,0.376-0.125
		c0.502-0.146,1.024-0.219,1.546-0.219c0.188,0,0.376,0.01,0.575,0.031c0.24,0.021,0.47,0.063,0.711,0.115
		c0.115,0.021,0.219,0.052,0.334,0.084c0.063,0.021,0.136,0.042,0.199,0.063c0.115,0.042,0.23,0.084,0.345,0.136
		c0.042,0.01,0.084,0.021,0.115,0.042c0.136,0.052,0.261,0.115,0.387,0.188c0.042,0.021,0.084,0.042,0.136,0.073
		c0.125,0.073,0.251,0.146,0.366,0.23c0.031,0.021,0.063,0.031,0.084,0.063c0.146,0.094,0.293,0.209,0.428,0.334
		c0.146,0.125,0.293,0.261,0.418,0.408c0.115,0.115,0.23,0.251,0.334,0.397c0.094,0.136,0.199,0.282,0.282,0.428
		c0.063,0.104,0.115,0.209,0.167,0.324v0.01c0.052,0.084,0.084,0.167,0.115,0.261c0.073,0.125,0.125,0.272,0.167,0.408
		c0,0.021,0.01,0.031,0.01,0.052c0.052,0.157,0.094,0.313,0.125,0.47c0.042,0.188,0.073,0.376,0.094,0.575
		c0.031,0.209,0.042,0.418,0.042,0.637c0-0.219,0.01-0.428,0.042-0.637c0.021-0.199,0.052-0.387,0.094-0.575
		c0.031-0.157,0.073-0.313,0.125-0.47c0-0.021,0.01-0.031,0.01-0.052c0.042-0.136,0.094-0.282,0.167-0.408
		c0.031-0.094,0.063-0.178,0.115-0.261v-0.01c0.052-0.115,0.105-0.219,0.167-0.324c0.084-0.146,0.188-0.293,0.282-0.428
		c0.104-0.146,0.219-0.282,0.334-0.397c0.125-0.146,0.272-0.282,0.418-0.408c0.136-0.125,0.282-0.24,0.428-0.334
		c0.021-0.031,0.052-0.042,0.084-0.063c0.115-0.084,0.24-0.157,0.366-0.23c0.052-0.031,0.094-0.052,0.136-0.073
		c0.125-0.073,0.251-0.136,0.387-0.188c0.031-0.021,0.073-0.031,0.115-0.042c0.115-0.052,0.23-0.094,0.345-0.136
		c0.063-0.021,0.136-0.042,0.199-0.063c0.115-0.031,0.219-0.063,0.334-0.084c0.24-0.052,0.47-0.094,0.711-0.115
		c0.199-0.021,0.387-0.031,0.575-0.031c0.522,0,1.045,0.073,1.546,0.219c0.251,0.073,0.491,0.157,0.731,0.272
		c0.47,0.219,0.919,0.522,1.327,0.899c0.199,0.188,0.387,0.397,0.554,0.627c0.178,0.23,0.334,0.481,0.481,0.752
		c0.146,0.261,0.272,0.554,0.376,0.867c2.435,7.116,9.08,11.943,16.603,12.058c3.396,0.052,5.287,2.738,5.287,5.434
		c0,0.167-0.01,0.324-0.021,0.491c0,0.021-0.01,0.042-0.01,0.063c-0.01,0.146-0.031,0.293-0.052,0.439
		c-0.042,0.188-0.084,0.387-0.136,0.575c-0.094,0.313-0.219,0.627-0.376,0.92c-0.073,0.146-0.157,0.282-0.251,0.418
		c-0.188,0.313-0.428,0.596-0.7,0.867c-0.01,0.01-0.031,0.021-0.042,0.031c-0.125,0.125-0.261,0.24-0.408,0.355
		c-0.115,0.084-0.23,0.167-0.355,0.24c-0.021,0.021-0.052,0.042-0.084,0.052c-0.073,0.052-0.146,0.094-0.219,0.125
		c-0.136,0.084-0.282,0.157-0.428,0.219c-0.209,0.094-0.418,0.178-0.637,0.251c0.616-0.199,1.212-0.293,1.776-0.293
		c0.125,0,0.251,0,0.376,0.021c0.115,0,0.24,0.021,0.355,0.042c0.157,0.021,0.303,0.052,0.449,0.084
		c0.355,0.084,0.69,0.199,1.014,0.366c0.104,0.042,0.209,0.094,0.313,0.157c0.334,0.188,0.637,0.408,0.92,0.669
		c0.125,0.115,0.251,0.24,0.366,0.366c0.355,0.387,0.658,0.815,0.888,1.285c0.481,0.94,0.7,2.017,0.575,3.072
		c-0.01,0.178-0.042,0.366-0.094,0.543c0.01,0.021,0,0.042-0.01,0.052c-0.031,0.178-0.084,0.355-0.146,0.533
		c-0.052,0.157-0.125,0.324-0.199,0.481c-0.094,0.209-0.209,0.408-0.345,0.606C291.004,359.727,290.879,359.894,290.743,360.051z"/>
</g>
<circle style="fill:#FCBD00;" cx="256.251" cy="360.876" r="6.268"/>
<path style="fill:#1B3466;" d="M263.408,359.612c0-0.01,0-0.01,0-0.01c-0.052-0.334-0.136-0.658-0.24-0.972
	c-0.104-0.324-0.23-0.627-0.387-0.93c-1.034-2.132-3.093-3.688-5.527-4.012c-0.324-0.063-0.658-0.084-1.003-0.084
	s-0.679,0.021-1.003,0.084c-2.445,0.324-4.504,1.881-5.528,4.012c-0.157,0.303-0.282,0.606-0.387,0.93
	c-0.105,0.313-0.188,0.637-0.24,0.972c0,0,0,0,0,0.01c-0.073,0.408-0.115,0.836-0.115,1.264c0,2.048,0.857,3.908,2.226,5.235
	c0,0,0,0,0.01,0c0.24,0.24,0.491,0.449,0.763,0.637c0.272,0.209,0.554,0.387,0.846,0.543c0.01,0,0.01,0,0.01,0
	c1.024,0.554,2.184,0.857,3.417,0.857c1.233,0,2.393-0.303,3.417-0.857c0.303-0.157,0.585-0.334,0.857-0.533
	c0.272-0.199,0.522-0.408,0.763-0.648c1.379-1.317,2.236-3.176,2.236-5.235C263.523,360.448,263.481,360.02,263.408,359.612z
	 M260.086,364.46c-0.219,0.251-0.47,0.481-0.742,0.669c-0.272,0.209-0.564,0.376-0.878,0.512c-0.669,0.324-1.421,0.502-2.215,0.502
	c-0.794,0-1.546-0.178-2.215-0.502h-0.01c-0.313-0.136-0.596-0.303-0.867-0.512c-0.272-0.188-0.522-0.418-0.752-0.669
	c-0.888-0.93-1.421-2.194-1.421-3.584c0-0.219,0.01-0.428,0.042-0.637c0.042-0.345,0.115-0.669,0.219-0.993
	c0.105-0.324,0.23-0.627,0.397-0.919c0.742-1.337,2.058-2.32,3.605-2.623c0.324-0.063,0.658-0.094,1.003-0.094
	s0.679,0.031,1.003,0.094c1.546,0.303,2.863,1.285,3.605,2.623c0.167,0.293,0.293,0.596,0.397,0.919
	c0.104,0.313,0.178,0.648,0.219,0.982v0.01c0.031,0.209,0.042,0.418,0.042,0.637c0,1.39-0.533,2.654-1.421,3.584H260.086z"/>
<g>
	<path style="fill:#FCBD00;" d="M202.509,235.432c-22.733,14.04-29.085,32.093-29.085,32.093l22.733,2.675
		C192.144,253.484,202.509,235.432,202.509,235.432z"/>
	<path style="fill:#FCBD00;" d="M291.934,273.575l29.257-10.062c-12.372-12.372-5.214-35.161-5.026-35.756
		c-0.554,0.199-18.171,6.635-24.231,8.296v-25.025h-3.009v1.264c-4.336,1.4-8.955,5.36-11.557,6.175c0,0,3.762,1.421,6.353-1.17
		c1.379-1.379,3.511-1.567,5.204-1.452v56.853c-3.427-4.618-13.009-19.017-8.861-30.919c0,0-10.909,2.017-21.243,4.671v-5.057
		c9.759-2.414,20.24-3.218,20.24-3.218c-8.422-5.13-5.496-19.059-5.496-19.059l-14.744,4.535v-4.033
		c8.422-1.912,16.896-2.57,16.896-2.57c-7.69-4.681-5.015-17.387-5.015-17.387l-11.88,3.657v-9.007h-3.009v1.285
		c-4.692,0.93-9.979,5.611-12.842,6.51c0,0,3.762,1.421,6.353-1.17c1.766-1.766,4.754-1.588,6.489-1.296v4.608l-10.606,3.271
		c-7.68,7.68-2.341,19.717-2.341,19.717c1.808-3.093,7.116-5.319,12.946-6.875v4.221l-10.198,3.135
		c-8.422,8.432-2.56,21.629-2.56,21.629c1.829-3.145,6.938-5.454,12.758-7.147v5.047c-6.05,1.661-11.494,3.5-13.855,5.235
		c0,0-5.475,6.51-1.567,16.008c-3.082-5.047-7.962-14.618-5.12-21.023c0,0-6.541,0.69-13.709,2.476v-4.065
		c6.938-1.243,13.375-1.421,13.375-1.421c-7.69-4.681-5.016-17.377-5.016-17.377l-8.359,2.403v-13.605h-3.009v1.515
		c-4.566,1.128-9.624,5.559-12.392,6.426c0,0,3.762,1.421,6.353-1.17c1.62-1.62,4.274-1.599,6.04-1.369v9.07l-10.689,3.082
		c-7.69,7.68-2.341,19.717-2.341,19.717c1.944-3.333,7.367-5.402,13.03-6.677v4.284c-5.151,1.494-10.209,3.574-13.03,6.405
		c0,0-5.684,9.028,3.009,17.721c0,0,3.041-2.414,10.021-3.72v8.411c-14.754-1.358-30.689-4.033-45.129-9.038l19.393,9.697
		l9.697,13.375c0,0,1.003-5.016,6.353-5.016c5.339,0,11.692,2.341,21.055,2.341c9.362,0,4.347-5.015,4.347-5.015
		s16.05,3.009,21.065,5.35c5.016,2.341,18.714,0.334,21.055-4.681c0,0,14.378,7.022,23.406,7.022c9.028,0,11.368,0,11.368,0
		l-2.675-8.025c0,0,8.694-5.016,8.694-12.372c0,0-11.975,3.124-25.245,4.054L291.934,273.575L291.934,273.575z M255.812,280.722
		c-8.955,0.24-21.044,0.188-34.252-0.878v-9.132c5.12-0.596,11.88-0.543,20.501,1.055c1.202,1.954,2.79,4.002,4.911,6.123
		c0,0,0.951-3.887,8.84-5.768V280.722z M288.925,277.441c-3.657,0.146-7.346,0.115-10.867-0.219l-6.687,2.675
		c0,0-4.754,0.46-12.549,0.731v-9.07c6.238-0.878,15.736-0.606,30.104,2.414L288.925,277.441L288.925,277.441z"/>
</g>
<g>
	<path style="fill:#002F63;" d="M220.891,477.874c-1.944,0-3.542,0.575-3.657,2.351c-0.178,2.393-0.637,6.113-5.831,6.113
		c-3.95,0-6.123-2.121-6.123-6.572v-15.956c0-4.462,2.173-6.572,6.008-6.572c5.423,0,5.831,3.887,5.945,5.663
		c0.052,1.714,1.599,2.341,3.709,2.341c2.518,0,3.72-0.69,3.72-3.657c0-6.635-5.663-10.867-13.605-10.867
		c-7.21,0-13.208,3.542-13.208,13.093v15.956c0,9.54,5.945,13.093,13.145,13.093c8.004,0,13.667-4.409,13.667-11.327
		C224.663,478.615,223.462,477.874,220.891,477.874z"/>
	<path style="fill:#002F63;" d="M240.264,450.717c-1.881,0-3.709,0.69-3.709,2.288v37.167c0,1.536,1.829,2.341,3.709,2.341
		c1.829,0,3.72-0.805,3.72-2.341v-37.167C243.984,451.406,242.092,450.717,240.264,450.717z"/>
	<path style="fill:#002F63;" d="M281.485,450.717h-24.179c-1.609,0-2.351,1.714-2.351,3.312c0,1.839,0.857,3.375,2.351,3.375h8.401
		v32.768c0,1.536,1.829,2.341,3.72,2.341c1.829,0,3.709-0.805,3.709-2.341v-32.768h8.349c1.484,0,2.341-1.599,2.341-3.375
		C283.826,452.43,283.084,450.717,281.485,450.717z"/>
	<path style="fill:#002F63;" d="M318.704,450.717c-1.202,0-1.724,0.512-2.236,1.484l-8.746,16.53l-8.694-16.53
		c-0.512-1.024-1.087-1.484-2.278-1.484c-2.006,0-4.921,1.254-4.921,3.093c0,0.167,0.052,0.449,0.167,0.742l11.839,20.47
		c0.115,0.167,0.167,0.449,0.167,0.742v14.409c0,1.536,1.891,2.341,3.72,2.341c1.891,0,3.72-0.805,3.72-2.341v-14.409
		c0-0.293,0.115-0.575,0.23-0.742l11.776-20.47c0.167-0.293,0.167-0.575,0.167-0.742C323.615,451.971,320.7,450.717,318.704,450.717
		z"/>
</g>
<g>
	<path style="fill:#75C5F2;" d="M61.001,278.037c-0.418,0-0.763,0.157-1.024,0.387l-4.504,3.427
		c-0.606,0.376-0.951,1.108-0.951,1.787c0,0.993,0.648,1.985,1.599,1.985c0.272,0,0.616-0.073,0.92-0.345l1.223-1.223v20.355
		c0,1.024,1.212,1.557,2.476,1.557c1.212,0,2.476-0.533,2.476-1.557v-24.775C63.216,278.643,62.036,278.037,61.001,278.037z"/>
	<path style="fill:#75C5F2;" d="M84.511,290.732c2.173-0.763,3.668-2.675,3.668-5.872c0-4.838-3.396-6.75-8.046-6.75
		c-4.681,0-8.077,1.912-8.077,6.75c0,3.197,1.484,5.11,3.657,5.872c-2.706,0.982-4.535,3.239-4.535,7.158v0.46
		c0,5.674,3.929,7.847,8.955,7.847s8.913-2.173,8.913-7.847v-0.46C89.046,293.972,87.259,291.715,84.511,290.732z M80.133,282.154
		c2.058,0,3.281,0.951,3.281,3.312s-1.223,3.323-3.281,3.323c-2.09,0-3.281-0.961-3.281-3.323S78.043,282.154,80.133,282.154z
		 M84.093,297.775c0,2.978-1.442,4.389-3.96,4.389c-2.476,0-4.002-1.379-4.002-4.389v-0.763c0-2.894,1.484-4.19,4.002-4.19
		c2.476,0,3.96,1.296,3.96,4.19V297.775z"/>
	<path style="fill:#75C5F2;" d="M428.68,278.11c-4.995,0-8.913,2.372-8.913,8.735v0.533c0,6.019,3.584,7.889,7.889,7.889
		c1.975,0,3.803-0.46,5.068-1.944v4.148c0,3.009-1.567,4.378-4.117,4.378c-2.132,0-3.929-1.024-3.929-2.811
		c0-1.494-1.223-1.87-2.591-1.87c-1.557,0-2.32,0.491-2.32,2.058c0,3.197,2.623,6.969,8.683,6.969c5.183,0,9.226-2.361,9.226-8.725
		v-10.627C437.676,280.482,433.706,278.11,428.68,278.11z M432.724,287.378c0,2.894-1.567,4.002-4.002,4.002
		c-2.518,0-4.002-1.181-4.002-4.347v-0.502c0-3.009,1.484-4.378,3.96-4.378c2.518,0,4.044,1.369,4.044,4.378L432.724,287.378
		L432.724,287.378z"/>
	<path style="fill:#75C5F2;" d="M461.531,295.299h-1.787v-4.002c0-1.097-1.223-1.557-2.487-1.557c-1.212,0-2.476,0.46-2.476,1.557
		v4.002h-4.451l7.314-14.629c0.115-0.23,0.188-0.46,0.188-0.648c0-1.149-1.599-1.912-2.476-1.912c-0.794,0-1.641,0.345-2.09,1.296
		l-9.038,17.763c-0.188,0.345-0.261,0.679-0.261,0.993c0,1.097,0.721,1.745,1.672,1.745h9.143v4.504
		c0,1.024,1.264,1.557,2.476,1.557c1.264,0,2.487-0.533,2.487-1.557v-4.504h1.787c0.805,0,1.557-1.139,1.557-2.278
		C463.088,296.448,462.555,295.299,461.531,295.299z"/>
</g>
<g>
	<path style="fill:#1B3466;" d="M117.551,201.822L84.229,185.72c-3.145-1.515-5.308,0.021-6.374,2.226
		c-1.494,3.082-1.797,4.566,1.076,8.735l7.178,10.459l-12.664,0.888c-5.057,0.345-6.019,1.505-7.513,4.587
		c-1.034,2.152-0.92,4.859,2.226,6.374l33.322,16.102c1.766,0.846,3.678-0.867,4.723-3.02c1.034-2.152,1.191-4.723-0.575-5.58
		l-21.201-10.24l12.11-0.606c1.588-0.042,2.424-0.93,2.905-1.923c0.502-1.045,0.648-2.341-0.219-3.636l-6.478-9.655l20.658,9.979
		c1.766,0.857,3.678-0.867,4.723-3.02C119.16,205.249,119.317,202.668,117.551,201.822z"/>
	<path style="fill:#1B3466;" d="M145.45,167.236c-0.136-0.115-0.355-0.23-0.585-0.355l-35.495-16.238
		c-2.048-0.92-4.65,0.449-6.52,2.55c-1.87,2.1-2.926,4.848-1.766,6.781l20.334,33.301c0.136,0.209,0.282,0.408,0.418,0.533
		c1.693,1.505,5.245,0,6.99-1.975c1.014-1.139,1.463-2.382,0.752-3.511l-4.336-6.635l8.579-9.644l7.095,3.521
		c1.202,0.585,2.382-0.01,3.396-1.149C146.066,172.45,147.143,168.741,145.45,167.236z M121.051,175.344l-9.289-14.232l15.224,7.565
		L121.051,175.344z"/>
	<path style="fill:#1B3466;" d="M179.242,144.959l-21.473-32.444c-1.118-1.682-3.584-1.087-5.569,0.23
		c-1.996,1.317-3.511,3.354-2.393,5.036l11.483,17.345l-18.704-10.292c-4.399-2.445-5.642-1.985-8.495-0.094
		c-1.996,1.317-3.469,3.396-2.361,5.078l21.452,32.392c1.076,1.63,3.605,1.128,5.59-0.188c1.996-1.317,3.448-3.448,2.361-5.078
		l-11.483-17.345l21.379,11.233c2.152,1.149,4.023,0.418,5.851-0.794C178.876,148.72,180.328,146.589,179.242,144.959z"/>
	<path style="fill:#1B3466;" d="M214.998,121.219c-1.202-3.469-2.926-3.783-6.05-2.696c-2.309,0.794-4.075,2.048-3.511,4.253
		c0.596,2.309,1.526,5.935-3.103,7.534c-3.354,1.16-5.893-0.031-7.252-3.971l-5.287-15.318c-1.358-3.939-0.084-6.447,3.208-7.586
		c4.921-1.693,6.363,1.954,6.949,3.438c0.825,2.038,3.02,1.996,5.444,1.16c3.062-1.055,4.232-2.372,3.03-5.841
		c-2.529-7.346-10.209-9.352-18.484-6.499c-7.576,2.612-12.601,8.495-9.164,18.442l5.277,15.318
		c3.438,9.947,11.013,11.473,18.589,8.861C212.919,135.461,217.642,128.909,214.998,121.219z"/>
	<path style="fill:#1B3466;" d="M256.303,86.852c-0.157-2.017-2.602-2.685-4.974-2.497c-2.382,0.188-4.692,1.223-4.535,3.239
		l1.17,14.942l-12.142,0.951l-1.17-14.942c-0.157-2.017-2.602-2.675-4.974-2.497c-2.382,0.188-4.692,1.233-4.535,3.239l3.041,38.797
		c0.146,1.944,2.602,2.738,4.984,2.55c2.382-0.188,4.681-1.348,4.524-3.302l-1.296-16.52l12.142-0.961l1.296,16.53
		c0.157,1.954,2.612,2.748,4.984,2.56c2.382-0.188,4.681-1.348,4.524-3.302L256.303,86.852z"/>
	<path style="fill:#1B3466;" d="M304.159,89.83l-21.452-3.751c-2.058-0.366-4.274,0.24-4.608,2.173l-6.698,38.264
		c-0.334,1.933,1.546,3.25,3.594,3.615l21.452,3.751c1.985,0.345,3.208-1.62,3.542-3.542c0.387-2.226-0.303-4.336-2.111-4.65
		l-16.144-2.832l1.787-10.24l9.038,1.578c1.996,0.345,3.177-1.432,3.459-3.062c0.334-1.923-0.387-3.856-2.194-4.169l-9.038-1.578
		l1.787-10.188l16.154,2.821c1.808,0.324,3.166-1.432,3.553-3.657C306.625,92.432,306.145,90.175,304.159,89.83z"/>
	<path style="fill:#1B3466;" d="M339.111,101.627c-7.032-3.02-15.768-2.988-19.393,5.444c-5.653,13.155,12.675,19.634,9.749,26.436
		c-1.16,2.696-4.462,2.476-7.043,1.369c-5.235-2.247-5.13-7.137-7.774-8.265c-2.132-0.92-5.026,1.16-5.851,3.072
		c-1.588,3.709,3.051,9.968,10.407,13.134c8.15,3.5,15.935,1.651,19.414-6.437c6.092-14.169-12.184-20.762-9.77-26.384
		c0.752-1.735,3.082-2.664,7.074-0.951c4.608,1.975,4.754,4.577,6.781,5.444c2.466,1.066,4.807-1.599,5.465-3.114
		C350.051,106.998,342.089,102.902,339.111,101.627z"/>
	<path style="fill:#1B3466;" d="M389.695,133.235l-21.18-15.809c-1.62-1.212-3.626,0.042-4.838,1.661
		c-1.39,1.86-1.755,4.106-0.293,5.204l6.771,5.047l-19.874,26.624c-1.17,1.578,0.157,3.783,2.069,5.214
		c1.923,1.421,4.42,2.069,5.59,0.502l19.864-26.634l6.771,5.057c1.463,1.097,3.511,0.094,4.901-1.766
		C390.677,136.714,391.314,134.437,389.695,133.235z"/>
	<path style="fill:#1B3466;" d="M422.275,168.438l-13.897-16.76c-1.327-1.599-3.417-2.581-4.921-1.327l-29.895,24.795
		c-1.505,1.254-0.93,3.48,0.397,5.078l13.908,16.76c1.285,1.557,3.479,0.846,4.984-0.408c1.745-1.442,2.581-3.49,1.411-4.901
		l-10.459-12.622l8.004-6.635l5.851,7.064c1.296,1.546,3.344,0.961,4.618-0.094c1.505-1.254,2.205-3.187,1.034-4.598l-5.862-7.064
		l7.962-6.593l10.47,12.612c1.17,1.411,3.333,0.961,5.078-0.481C422.463,172.011,423.57,169.984,422.275,168.438z"/>
	<path style="fill:#1B3466;" d="M441.501,201.456l-5.507-11.4c-0.773-1.599-2.487-2.058-3.866-1.4l-35.035,16.917
		c-1.766,0.846-1.609,3.417-0.575,5.569c1.034,2.152,2.957,3.866,4.723,3.02l13.27-6.405l1.755,3.636l-11.013,14.618
		c-0.857,1.16-0.794,2.424-0.261,3.521c1.223,2.539,4.911,4.284,7.064,3.25c0.272-0.136,0.637-0.376,0.857-0.752l8.934-12.601
		c3.354,3.145,8.234,4.253,14.399,1.275C445.231,216.367,445.137,209.011,441.501,201.456z M431.271,212.511
		c-3.856,1.86-6.029,0.596-7.513-2.487l-2.633-5.454l10.25-4.953l2.633,5.454C435.493,208.165,435.127,210.641,431.271,212.511z"/>
</g>
<g>
</g>
<g>
</g>
<g>
</g>
<g>
</g>
<g>
</g>
<g>
</g>
<g>
</g>
<g>
</g>
<g>
</g>
<g>
</g>
<g>
</g>
<g>
</g>
<g>
</g>
<g>
</g>
<g>
</g>
</svg>
