<?xml version="1.0" encoding="iso-8859-1"?>
<!-- Generator: Adobe Illustrator 19.0.0, SVG Export Plug-In . SVG Version: 6.00 Build 0)  -->
<svg version="1.1" id="Capa_1" xmlns="http://www.w3.org/2000/svg" xmlns:xlink="http://www.w3.org/1999/xlink" x="0px" y="0px"
	 viewBox="0 0 512 512" style="enable-background:new 0 0 512 512;" xml:space="preserve">
<path style="fill:#EBEBED;" d="M512,256c0,54.69-17.147,105.368-46.362,146.965c-2.111,2.999-4.284,5.956-6.51,8.85
	c-2.863,3.72-5.81,7.346-8.861,10.898c-0.899,1.055-1.818,2.1-2.738,3.135c-0.784,0.888-1.567,1.766-2.361,2.633
	c-5.193,5.695-10.637,11.149-16.321,16.353C383.31,486.546,322.633,512,256,512s-127.321-25.454-172.868-67.187
	c-5.684-5.204-11.139-10.668-16.332-16.363c-0.805-0.878-1.599-1.766-2.382-2.654c-0.92-1.034-1.829-2.079-2.727-3.124
	c-3.041-3.553-5.998-7.178-8.84-10.888c-2.236-2.905-4.409-5.851-6.51-8.85C17.136,361.347,0,310.669,0,256
	C0,114.615,114.615,0,256,0S512,114.615,512,256z"/>
<g>
	<path style="fill:#FFE600;" d="M26.867,157.618c9.199-9.199,25.597-27.305,26.616-28.427l0.008-0.008
		c1.544-2.555,4.315-4.358,7.896-4.358c10.788,0,15.535,15.966,10.097,28.186l-6.501,39.929l-25.706-2.189c0,0,0.76-9.821,0-16.224
		c-1.122,0.94-2.243,1.787-3.349,2.511C27.153,182.791,15.433,169.052,26.867,157.618z"/>
	<path style="fill:#FFE600;" d="M485.125,157.618c-9.199-9.199-25.597-27.305-26.616-28.427l-0.008-0.008
		c-1.544-2.555-4.315-4.358-7.896-4.358c-10.788,0-15.534,15.966-10.097,28.186l6.501,39.929l25.706-2.189c0,0-0.76-9.821,0-16.224
		c1.122,0.94,2.243,1.787,3.349,2.511C484.841,182.791,496.561,169.052,485.125,157.618z"/>
</g>
<path style="fill:#FEE300;" d="M468.292,382.579c0,7.461-3.323,17.878-9.164,29.236c-2.863,3.72-5.81,7.346-8.861,10.898
	c-0.899,1.055-1.818,2.1-2.738,3.135c-0.784,0.888-1.567,1.766-2.361,2.633c-5.193,5.695-10.637,11.149-16.321,16.353
	C383.31,486.546,322.633,512,256,512s-127.321-25.454-172.868-67.187c-5.684-5.204-11.139-10.668-16.332-16.363
	c-0.805-0.878-1.599-1.766-2.382-2.654c-0.92-1.034-1.829-2.079-2.727-3.124c-3.041-3.553-5.998-7.178-8.84-10.888
	c-5.841-11.348-9.153-21.755-9.153-29.205c0-21.295,32.507-56.101,63.289-25.318c42.674,42.674,96.653,77.093,149.013,77.093
	c52.349,0,106.339-34.419,149.013-77.093C435.785,326.478,468.292,361.284,468.292,382.579z"/>
<path style="fill:#1D2123;" d="M443.507,345.537c-13.605-5.632-27.815-2.017-40.02,10.198
	C336.959,422.264,282.52,432.201,256,432.201c-26.53,0-80.959-9.937-147.487-76.466c-12.215-12.215-26.425-15.83-40.03-10.198
	c-16.112,6.677-26.948,24.545-26.948,37.042c0,5.642,1.703,12.654,4.807,20.355c4.796,6.834,9.927,13.416,15.35,19.738
	c-9.989-15.705-15.841-30.804-15.841-40.093c0-13.761,12.56-28.191,24.283-33.05c3.135-1.306,6.896-2.288,11.118-2.288
	c7.084,0,15.454,2.79,24.21,11.546c22.81,22.81,47.48,41.796,71.356,54.909c27.554,15.141,54.199,22.821,79.182,22.821
	c24.983,0,51.618-7.68,79.172-22.821c23.876-13.113,48.556-32.099,71.367-54.909c13.96-13.96,26.917-12.748,35.318-9.258
	c11.724,4.859,24.283,19.289,24.283,33.05c0,9.289-5.862,24.409-15.872,40.135c5.433-6.322,10.564-12.915,15.37-19.749
	c3.103-7.711,4.817-14.733,4.817-20.386C470.455,370.082,459.63,352.214,443.507,345.537z"/>
<path style="fill:#DD1505;" d="M461.396,382.579c0,9.164-6.604,24.994-16.823,40.323c-4.796,7.189-10.094,14.785-15.726,21.932
	C383.31,486.546,322.633,512,256,512s-127.321-25.454-172.868-67.187c-5.632-7.137-10.93-14.723-15.715-21.911
	c-10.219-15.329-16.812-31.159-16.812-40.323c0-11.797,14.012-30.584,30.616-30.584c7.126,0,14.148,3.417,20.877,10.146
	c29.55,29.55,88.837,79.12,153.903,79.12c27.92,0,85.055-10.282,153.893-79.12c6.729-6.729,13.761-10.146,20.877-10.146
	C447.383,351.995,461.396,370.782,461.396,382.579z"/>
<g>
	<path style="fill:#FEE300;" d="M172.18,432.127c0.959-1.908,3.563-1.613,5.877-0.449c2.197,1.104,4.102,3.078,3.143,4.986
		l-13.203,26.251c-5.002,9.945-13.282,10.419-21.434,6.317c-8.211-4.129-12.71-11.03-7.708-20.974l13.203-26.252
		c0.96-1.908,3.564-1.612,5.878-0.449c2.197,1.106,4.102,3.078,3.143,4.986l-13.203,26.251c-1.977,3.932-0.825,6.829,2.643,8.574
		c3.469,1.745,6.482,0.941,8.459-2.991L172.18,432.127z"/>
	<path style="fill:#FEE300;" d="M205.562,487.341l-6.35-24.746l-5.466,21.316c-0.515,2.006-3.217,2.382-5.662,1.755
		c-2.445-0.627-4.634-2.257-4.119-4.263l10.21-39.811c0.531-2.069,3.217-2.382,5.662-1.755c3.511,0.901,4.747,1.551,5.956,6.74
		l5.188,21.977l5.466-21.316c0.531-2.069,3.202-2.32,5.647-1.693c2.445,0.627,4.664,2.132,4.134,4.201l-10.225,39.873
		c-0.514,2.006-3.217,2.381-5.662,1.755C208.084,490.795,206.19,489.842,205.562,487.341z"/>
	<path style="fill:#FEE300;" d="M240.911,451.24c0.176-2.128,2.765-2.825,5.281-2.617c2.516,0.206,4.957,1.317,4.781,3.444
		l-3.371,41.026c-0.169,2.065-2.77,2.889-5.286,2.683c-2.516-0.206-4.947-1.445-4.777-3.51L240.911,451.24z"/>
	<path style="fill:#FEE300;" d="M293.565,447.602c2.13-0.166,3.214,2.087,3.38,4.216c0.19,2.452-0.741,4.668-2.677,4.818
		l-8.906,0.694l2.73,35.042c0.161,2.066-2.276,3.295-4.793,3.49c-2.516,0.196-5.114-0.641-5.275-2.705l-2.731-35.042l-8.906,0.694
		c-1.936,0.15-3.198-1.893-3.39-4.346c-0.166-2.13,0.556-4.523,2.686-4.688L293.565,447.602z"/>
	<path style="fill:#FEE300;" d="M322.195,461.433l9.343-2.638c1.868-0.528,3.438,0.979,4.001,2.972
		c0.474,1.681,0.165,3.921-1.889,4.501l-9.343,2.638l2.991,10.588l16.692-4.715c1.868-0.528,3.49,1.166,4.142,3.471
		c0.562,1.993,0.306,4.419-1.749,5l-22.174,6.263c-2.117,0.598-4.516,0.2-5.079-1.794l-11.171-39.549
		c-0.563-1.994,1.274-3.588,3.392-4.187l22.173-6.262c2.055-0.581,3.543,1.353,4.106,3.346c0.651,2.305,0.155,4.596-1.714,5.124
		l-16.692,4.715L322.195,461.433z"/>
	<path style="fill:#FEE300;" d="M360.776,425.435c7.931-4.109,16.043-3.647,21.164,6.239l7.712,14.885
		c5.121,9.886,0.819,16.779-7.112,20.887l-10.172,5.269c-2.356,1.22-4.564,0.761-5.308-0.676l-18.966-36.608
		c-0.744-1.437,0.153-3.506,2.509-4.726L360.776,425.435z M359.711,435.901l13.666,26.378l5.115-2.65
		c3.218-1.667,4.219-4.518,2.194-8.426l-7.711-14.885c-2.024-3.908-4.931-4.734-8.15-3.067L359.711,435.901z"/>
	<path style="fill:#FEE300;" d="M337.444,68.928c0,0-3.488-27.529-22.475-29.255c-18.986-1.726-26.14,13.314-37.397,14.959
		c0,0-9.493-21.862-21.575-21.862c-12.082,0-21.575,21.862-21.575,21.862c-11.257-1.645-18.411-16.685-37.397-14.959
		c-18.986,1.726-22.475,29.255-22.475,29.255H337.444z"/>
	<polygon style="fill:#FEE300;" points="350.352,381.424 255.997,443.561 159.34,381.424 159.34,169.699 350.352,169.699 	"/>
</g>
<path style="fill:#1D2123;" d="M255.997,445.719c-0.405,0-0.811-0.114-1.167-0.343l-96.657-62.137
	c-0.618-0.397-0.991-1.08-0.991-1.815V169.699c0-1.191,0.965-2.158,2.158-2.158h191.013c1.191,0,2.158,0.965,2.158,2.158v211.726
	c0,0.725-0.365,1.403-0.971,1.801l-94.355,62.137C256.823,445.6,256.41,445.719,255.997,445.719z M161.497,380.247l94.485,60.741
	l92.212-60.725V171.857H161.497V380.247z"/>
<g>
	<path style="fill:#DD1505;" d="M166.174,176.603v48.329h27.522l-4.436-13.808l17.545,5.463h23.586v-5.179h-10.062V188.4h9.027
		l3.487-6.041l3.487,6.041h9.027v23.008h-10.072v5.179h25.312v-5.179h-10.062V188.4h9.027l3.487-6.041l3.487,6.041h9.027v23.008
		H265.49v5.179h24.164v-5.179h-10.072V188.4h9.027l3.487-6.041l3.487,6.041h9.027v23.008h-10.062v5.179h12.945v8.346h36.03v-48.329
		H166.174z M209.972,213.997l-12.945-4.6l20.997-19.849L209.972,213.997z"/>
	<rect x="166.17" y="230.975" style="fill:#DD1505;" width="177.351" height="12.514"/>
	<path style="fill:#DD1505;" d="M312.377,255.388l-6.455,13.791l2.719,1.994v12.445h-7.62v-12.445l2.709-1.994l-6.455-13.791
		l-6.455,13.791l2.719,1.994v12.445h-7.62v-12.445l2.709-1.994l-6.455-13.791l-6.455,13.791l2.719,1.994v23.664h14.093v8.052
		c0,0-9.199-2.873-14.093,2.02c-4.893,4.885-8.915,4.022-8.915,0.863c0-3.167,9.199-7.483,9.199-7.483l-11.504-7.767
		c0,0-1.726-24.45,10.072-31.647h-9.209l-6.904-13.515l-6.904,13.23l-7.483,0.285l-7.189-13.808l-6.326,13.523h-9.787
		c0,0,9.622,13.385,15.672,26.425c1.485,3.21,0.543,7.085-2.399,9.061c-3.064,2.063-6.369,5.679-6.369,11.693
		c0,7.767,8.198,15.966,8.198,15.966s-4.453,15.103-11.651,15.103c-7.189,0-3.452-31.931-3.452-31.931l8.346-15.535
		c0,0-16.398-7.767-16.398-28.772l-4.6,5.471c0,0-6.766-6.472-9.493-3.746c-2.736,2.736-3.746,11.219-8.06,15.534
		c-4.314,4.315-11.504-3.737-11.504-3.737s6.619,15.249,4.6,22.153c0,0,18.848-15.681,23.879-10.65
		c5.031,5.04-6.904,12.376-6.904,12.376s5.178,1.148,7.051,7.043c1.864,5.903,1.864,41.855,1.864,47.897v2.883
		c0,6.032,4.893,10.925,10.934,10.925h8.346c0,0-0.294,13.239-3.167,22.732c-2.873,9.493,7.767,15.241,9.209,21.575
		c1.433,6.326-3.452,14.378,1.433,16.682c4.893,2.304,25.027-2.873,23.879-10.934c-1.147-8.052-11.797-12.652-11.797-20.997
		c0,0,10.072-1.726,10.072-9.209c0-7.474-12.366-14.093-10.356-25.312l30.49,31.931c1.708,1.787,4.686,0.389,4.436-2.071
		c-0.302-2.934-0.371-6.352,0.172-9.726c1.433-8.915,3.737-24.164-2.589-24.164c-6.334,0-5.756-5.463-4.03-12.082
		c1.726-6.611-6.619,1.441-13.523,1.441l8.63-14.093c0,0,18.123,4.6,18.123,10.356v52.35c0,3.167,2.304,3.167,4.608,3.167
		c2.296,0,4.6,0.578,4.6-4.315c0-4.893,0-52.928,0-52.928s9.493-6.334,3.737-15.535c0,0,6.041-7.197-3.452-20.428v-10.356h14.102
		v-23.665l2.709-1.994L312.377,255.388z M244.726,274.702c-0.88,0-1.579-0.75-1.519-1.631l0.466-6.999l4.548,6.205
		c0.742,1.001,0.018,2.425-1.226,2.425H244.726z M252.83,298.288l-4.885-10.641h9.778L252.83,298.288z M259.837,274.702h-2.27
		c-1.252,0-1.968-1.424-1.234-2.425l4.557-6.205l0.466,6.999C261.417,273.95,260.718,274.702,259.837,274.702z M292.528,325.041
		c0,0-14.309-0.863-14.309-8.198c0-2.373,10.356-4.168,14.309-0.215V325.041z"/>
</g>
<circle style="fill:#F39400;" cx="50.636" cy="306.792" r="37.867"/>
<circle style="fill:#FEE300;" cx="50.636" cy="306.792" r="44.459"/>
<path style="fill:#FFE600;" d="M255.997,139.781c127.725,0,128.301,142.684,199.642,122.548
	c37.127-10.479,31.644-62.712,31.644-62.712c-37.397-8.63-79.397-146.136-231.286-146.136S62.108,190.986,24.71,199.617
	c0,0-5.484,52.232,31.644,62.712C127.696,282.466,128.272,139.781,255.997,139.781z"/>
<path style="fill:#DD1505;" d="M69.596,257.372c-3.579-0.001-7.403-0.568-11.367-1.688c-25.394-7.168-27.107-39.356-26.864-51.076
	c11.901-5.34,23.096-19.33,37.889-37.813c17.192-21.481,38.588-48.214,68.384-69.479c34.822-24.851,73.538-36.932,118.359-36.932
	s83.536,12.081,118.358,36.933c29.797,21.266,51.193,47.998,68.384,69.479c14.793,18.482,25.988,32.472,37.89,37.813
	c0.242,11.709-1.467,43.907-26.865,51.076c-3.967,1.12-7.791,1.688-11.365,1.688c-20.734,0-34.847-19.083-52.715-43.243
	c-26.772-36.2-60.092-81.252-133.686-81.252c-73.595,0-106.911,45.052-133.68,81.252c-17.865,24.158-31.979,43.241-52.711,43.243
	C69.602,257.372,69.601,257.372,69.596,257.372z"/>
<g>
	<path style="fill:#FFE600;" d="M94.205,204.659c0.583,1.357,0.213,2.464-0.424,3.281c-0.636,0.817-1.58,1.394-3.039,1.16
		l-15.601-2.726l22.356,17.43c1.378,1.074,0.779,3.315-0.494,4.95c-1.313,1.684-3.302,2.761-4.679,1.686l-31.901-24.872
		c-2.45-1.91-2.044-4.219-0.731-5.904c1.87-2.399,3.216-3.073,7.541-2.41l16.328,2.636l-6.538-15.193
		c-1.698-4.032-1.333-5.553,0.537-7.952c1.313-1.684,3.454-2.64,5.904-0.73l31.901,24.872c1.378,1.074,0.779,3.315-0.494,4.95
		c-1.313,1.684-3.301,2.761-4.679,1.686l-21.948-17.112L94.205,204.659z"/>
	<path style="fill:#FFE600;" d="M121.229,190.174c-0.098-0.085-0.251-0.303-0.404-0.521l-22.569-36.116
		c-1.085-1.713-0.201-4.115,1.369-5.925c1.612-1.858,3.866-3.073,5.715-2.24l38.941,17.243c0.238,0.121,0.427,0.2,0.574,0.327
		c1.516,1.314,0.647,4.588-0.838,6.3c-0.933,1.076-1.997,1.61-3.138,1.048l-8.115-3.784l-9.713,11.197l4.891,7.499
		c0.717,1.05,0.337,2.179-0.595,3.254C125.863,190.166,122.793,191.531,121.229,190.174z M126.589,163.547l-18.701-8.768
		l11.32,17.275L126.589,163.547z"/>
	<path style="fill:#FFE600;" d="M171.045,143.251l-26.551-12.869l15.293,21.047c1.027,1.414-0.168,3.402-1.843,4.619
		c-1.727,1.255-3.936,1.74-4.963,0.326l-24.69-33.98c-1.066-1.466,0.116-3.365,1.843-4.619c2.461-1.788,3.836-1.987,7.703-0.077
		l24.295,12.187l-15.293-21.047c-1.065-1.466,0.154-3.311,1.882-4.567c1.675-1.217,3.86-1.844,4.926-0.378l24.729,34.032
		c1.027,1.414-0.168,3.402-1.843,4.619C174.908,143.725,173.115,144.228,171.045,143.251z"/>
	<path style="fill:#FFE600;" d="M191.792,91.949c-4.097,1.422-5.634,4.491-3.979,9.26l5.922,17.058
		c1.656,4.769,4.765,6.224,8.983,4.76c5.564-1.932,4.673-6.076,3.964-8.707c-0.536-1.938,0.964-3.143,3.043-3.865
		c2.751-0.955,4.311-0.606,5.394,2.512c2.568,7.398-1.849,14.207-10.409,17.179c-7.704,2.675-15.379,1.092-18.924-9.119
		l-5.922-17.058c-3.545-10.211,1.559-16.23,9.263-18.905c8.498-2.951,16.123-0.528,18.585,6.565
		c1.104,3.179,0.074,4.358-2.615,5.292c-2.262,0.786-4.146,0.686-4.844-1.127C199.472,93.942,197.601,89.932,191.792,91.949z"/>
	<path style="fill:#FFE600;" d="M251.226,100.35l-14.539,0.862l1.099,18.546c0.103,1.745-1.975,2.775-4.043,2.899
		c-2.133,0.126-4.254-0.655-4.357-2.4l-2.491-42.002c-0.108-1.81,1.914-2.707,4.047-2.834c2.068-0.122,4.246,0.527,4.354,2.335
		l1,16.865l14.539-0.862l-1-16.865c-0.108-1.81,1.914-2.707,4.047-2.834c2.068-0.122,4.246,0.527,4.354,2.335l2.491,42.002
		c0.103,1.745-1.976,2.775-4.044,2.899c-2.133,0.126-4.254-0.656-4.357-2.4L251.226,100.35z"/>
	<path style="fill:#FFE600;" d="M286.889,96.954l9.674,1.791c1.654,0.306,2.314,2.074,1.997,3.793
		c-0.272,1.464-1.417,3.029-3.198,2.699l-9.674-1.791l-2.369,12.793l18.011,3.335c1.655,0.306,2.291,2.202,1.926,4.174
		c-0.318,1.719-1.487,3.411-3.269,3.08l-22.657-4.196c-1.845-0.342-3.463-1.562-3.144-3.281l7.649-41.305
		c0.318-1.719,2.265-2.28,4.111-1.938l22.657,4.196c1.782,0.33,2.267,2.329,1.95,4.048c-0.366,1.973-1.638,3.514-3.294,3.208
		l-18.011-3.335L286.889,96.954z"/>
	<path style="fill:#FFE600;" d="M334.888,127.974c4.268-8.721-15.703-15.181-8.959-28.96c4.24-8.662,13.133-7.985,19.82-4.712
		c3.43,1.679,10.649,6.221,8.77,10.058c-0.655,1.337-2.894,3.556-4.986,2.532c-1.802-0.882-2.058-3.746-6.942-6.137
		c-4.186-2.049-7.395-1.53-8.76,1.261c-3.529,7.21,16.358,13.845,8.987,28.902c-4.07,8.314-11.989,9.771-20.012,5.843
		c-7.616-3.727-11.551-10.41-9.901-13.783c0.797-1.628,3.504-3.33,5.306-2.447c2.383,1.167,1.763,6.411,7.693,9.314
		C329.388,131.553,333.18,131.462,334.888,127.974z"/>
	<path style="fill:#FFE600;" d="M396.916,131.106c1.37,1.187,0.735,3.206-0.451,4.576c-1.313,1.517-3.234,2.252-4.507,1.149
		l-7.144-6.187l-24.281,28.04c-1.144,1.321-3.352,0.608-4.918-0.748c-1.614-1.398-2.587-3.44-1.443-4.761l24.281-28.039l-7.193-6.23
		c-1.273-1.102-0.862-3.058,0.494-4.625c1.187-1.37,3.094-2.287,4.464-1.101L396.916,131.106z"/>
	<path style="fill:#FFE600;" d="M400.935,166.115l6.183,7.652c1.057,1.309,0.41,3.08-0.95,4.18c-1.158,0.935-3.046,1.379-4.185-0.03
		l-6.183-7.652l-10.119,8.176l11.512,14.247c1.057,1.309,0.308,3.163-1.253,4.423c-1.359,1.098-3.348,1.624-4.487,0.214
		l-14.481-17.922c-1.18-1.46-1.614-3.439-0.255-4.538l32.673-26.399c1.359-1.098,3.203-0.258,4.383,1.202l14.481,17.922
		c1.139,1.41,0.208,3.243-1.151,4.342c-1.56,1.261-3.53,1.604-4.588,0.296l-11.512-14.247L400.935,166.115z"/>
	<path style="fill:#FFE600;" d="M435.279,182.429c1.061-0.85,2.708-0.759,3.72,0.504l8.01,10.005
		c5.3,6.619,7.061,13.997-0.973,20.43c-5.811,4.652-11.209,4.331-15.405,1.471l-6.979,16.45c-0.091,0.404-0.404,0.738-0.606,0.9
		c-1.668,1.335-5.175,0.578-6.712-1.342c-0.728-0.91-0.86-2.213-0.254-3.528l8.201-18.34l-3.398-4.244l-13.188,10.559
		c-1.364,1.092-3.366,0.042-4.701-1.626c-1.295-1.616-1.922-3.85-0.558-4.943L435.279,182.429z M436.8,191.991l-10.762,8.616
		l4.45,5.558c2.63,3.284,5.693,4.314,9.684,1.118s3.707-6.45,1.078-9.735L436.8,191.991z"/>
</g>
<path style="fill:#DD1505;" d="M50.632,268.921c-20.88,0-37.867,16.987-37.867,37.867c0,20.88,16.987,37.867,37.867,37.867
	s37.867-16.987,37.867-37.867C88.499,285.908,71.512,268.921,50.632,268.921z M74.719,282.242
	c4.097,4.021,5.231,10.186,2.705,15.341c-1.258,2.568-3.016,5.254-5.293,7.629c-3.683,3.841-9.978,8.165-19.358,7.659
	c0.285-15.795,4.765-22.398,6.696-24.516c4.192-0.539,7.316-2.057,8.836-4.468c0.866-1.374,1.453-3.426,0.597-6.242
	C71.004,278.967,72.954,280.51,74.719,282.242z M60.639,273.864c2.294,0.7,4.216,2.405,4.944,4.689
	c0.398,1.249,0.44,2.477-0.2,3.493c-1.879,2.981-8.974,3.906-17.249,2.252c-8.302-1.66-10.181-4.025-10.564-5.286
	c-0.246-0.811-0.042-1.68,0.387-2.517c0.757-1.48,2.179-2.515,3.784-2.947c2.837-0.763,5.816-1.173,8.891-1.173
	C54.112,272.374,57.471,272.896,60.639,273.864z M34.266,276.52c-0.387,1.402-0.275,2.583,0,3.492
	c0.242,0.799,0.652,1.541,1.213,2.234c-3.922,4.813-6.55,10.498-8.128,16.432c-0.057-0.033-0.115-0.067-0.172-0.1
	c-5.166-3.056-6.25-10.159-2.259-14.642C27.573,280.955,30.734,278.437,34.266,276.52z M16.216,306.788
	c0-4.552,0.897-8.896,2.509-12.876c0.976,2.52,3.122,5.868,7.826,8.256c-2.26,11.483-0.897,23.384,2.306,31.25
	C21.147,327.101,16.216,317.511,16.216,306.788z M35.281,337.577c-6.61-7.044-11.338-35.699,2.839-53.108
	c2.205,1.34,5.301,2.405,9.337,3.212c2.691,0.538,5.219,0.817,7.55,0.874c-2.609,4.095-5.701,11.902-5.701,25.913
	c0,16.918,3.052,23.552,9.082,25.842c-2.495,0.577-5.089,0.892-7.756,0.892C45.117,341.204,39.906,339.893,35.281,337.577z
	 M60.592,337.522c-4.368-1.117-7.587-5.326-7.818-21.189c0.518,0.025,1.03,0.042,1.533,0.042c9.731,0,16.351-4.637,20.317-8.774
	c3.989-4.161,6.68-9.333,7.91-13.703c1.615,3.984,2.514,8.333,2.514,12.89c0,12.465-6.663,23.398-16.613,29.437
	C66.088,337.649,63.251,338.202,60.592,337.522z"/>
<circle style="fill:#F39400;" cx="461.364" cy="306.792" r="37.867"/>
<circle style="fill:#FEE300;" cx="461.364" cy="306.792" r="44.459"/>
<path style="fill:#DD1505;" d="M423.495,306.788c0,20.88,16.987,37.867,37.867,37.867c20.88,0,37.867-16.987,37.867-37.867
	c0-20.88-16.987-37.867-37.867-37.867C440.482,268.921,423.495,285.908,423.495,306.788z M443.092,277.643
	c-0.857,2.817-0.27,4.869,0.597,6.242c1.519,2.411,4.644,3.929,8.836,4.468c1.931,2.118,6.409,8.722,6.696,24.516
	c-9.38,0.506-15.674-3.818-19.358-7.659c-2.278-2.376-4.035-5.06-5.293-7.629c-2.524-5.156-1.392-11.32,2.705-15.341
	C439.039,280.51,440.99,278.967,443.092,277.643z M461.362,272.374c3.075,0,6.054,0.412,8.891,1.173
	c1.605,0.432,3.027,1.467,3.784,2.947c0.428,0.838,0.632,1.707,0.387,2.517c-0.381,1.261-2.262,3.625-10.564,5.286
	c-8.277,1.654-15.37,0.729-17.249-2.252c-0.639-1.016-0.599-2.243-0.2-3.493c0.728-2.284,2.652-3.989,4.944-4.69
	C454.522,272.896,457.882,272.374,461.362,272.374z M487.073,283.936c3.99,4.485,2.907,11.586-2.259,14.642
	c-0.056,0.033-0.114,0.067-0.172,0.1c-1.578-5.934-4.208-11.619-8.128-16.432c0.561-0.693,0.972-1.435,1.213-2.234
	c0.275-0.909,0.387-2.09,0-3.492C481.259,278.437,484.421,280.955,487.073,283.936z M483.136,333.418
	c3.204-7.866,4.567-19.766,2.306-31.25c4.704-2.389,6.85-5.735,7.826-8.256c1.612,3.98,2.509,8.325,2.509,12.876
	C495.777,317.511,490.847,327.101,483.136,333.418z M461.362,341.204c-2.668,0-5.262-0.316-7.756-0.892
	c6.03-2.29,9.082-8.924,9.082-25.842c0-14.012-3.093-21.819-5.701-25.913c2.331-0.056,4.859-0.334,7.55-0.874
	c4.036-0.807,7.132-1.874,9.337-3.212c14.177,17.409,9.449,46.064,2.839,53.108C472.088,339.893,466.876,341.204,461.362,341.204z
	 M443.559,336.225c-9.95-6.038-16.613-16.972-16.613-29.437c0-4.557,0.899-8.906,2.514-12.89c1.23,4.37,3.921,9.542,7.91,13.703
	c3.966,4.137,10.585,8.773,20.317,8.774c0.502,0,1.015-0.017,1.533-0.042c-0.231,15.864-3.451,20.074-7.818,21.189
	C448.743,338.202,445.906,337.649,443.559,336.225z"/>
<path style="fill:#1D2123;" d="M465.725,260.382c10.797-6.266,18.251-17.429,21.763-32.861c3.311-14.549,1.999-27.582,1.941-28.131
	c-0.096-0.915-0.763-1.67-1.66-1.877c-4.12-0.951-8.403-3.703-12.962-7.786c-0.121-1.893-0.379-6.678-0.225-11.095
	c0.099,0.067,0.199,0.14,0.299,0.206c1.758,1.153,3.688,1.712,5.612,1.712c3.144,0,6.268-1.494,8.58-4.336
	c3.952-4.859,4.737-12.965-2.422-20.123c-8.846-8.846-24.618-26.22-26.424-28.213c-2.017-3.183-5.556-5.213-9.621-5.213
	c-4.415,0-8.314,2.26-10.98,6.366c-2.681,4.128-3.842,9.727-3.428,15.334c-22.817-27.387-52.89-58.571-96.813-76.986
	c-0.415-2.383-1.55-7.759-4.095-13.328c-4.586-10.032-11.545-15.747-20.124-16.526c-12.33-1.119-20.193,4.514-26.514,9.04
	c-3.479,2.492-6.548,4.689-9.844,5.603c-2.564-5.283-11.388-21.557-22.809-21.557c-11.421,0-20.246,16.274-22.809,21.557
	c-3.296-0.914-6.364-3.112-9.844-5.603c-6.322-4.527-14.186-10.163-26.514-9.04c-8.579,0.779-15.538,6.494-20.124,16.526
	c-2.545,5.568-3.681,10.944-4.096,13.328c-43.923,18.415-73.995,49.599-96.813,76.986c0.414-5.606-0.747-11.205-3.428-15.334
	c-2.667-4.104-6.566-6.366-10.98-6.366c-4.066,0-7.605,2.03-9.621,5.213c-1.807,1.994-17.578,19.367-26.424,28.213
	c-7.159,7.158-6.374,15.264-2.422,20.123c2.311,2.842,5.436,4.336,8.58,4.336c1.924,0,3.855-0.56,5.612-1.712
	c0.099-0.065,0.199-0.139,0.299-0.206c0.155,4.418-0.102,9.202-0.225,11.095c-4.558,4.082-8.842,6.835-12.962,7.786
	c-0.898,0.207-1.564,0.961-1.66,1.877c-0.057,0.548-1.37,13.581,1.941,28.131c3.512,15.432,10.966,26.594,21.763,32.861
	c-23.666,2.208-42.255,22.173-42.255,46.406c0,25.704,20.913,46.617,46.617,46.617s46.617-20.913,46.617-46.617
	c0-17.36-9.545-32.522-23.656-40.545c23.05-2.179,38.567-23.149,56.004-46.726c12.859-17.387,27.433-37.093,47.178-52.087
	c22.589-17.153,48.502-25.491,79.222-25.491s56.635,8.338,79.222,25.491c19.745,14.994,34.32,34.701,47.178,52.087
	c17.438,23.579,32.957,44.545,56.01,46.723c-14.113,8.022-23.662,23.186-23.662,40.548c0,25.704,20.913,46.617,46.617,46.617
	c25.704,0,46.617-20.913,46.617-46.617C507.979,282.556,489.39,262.59,465.725,260.382z M461.832,136.045
	c5.837,6.373,15.507,16.837,21.768,23.097c3.787,3.788,5.913,9.692,2.125,14.349c-1.928,2.37-5.298,3.825-8.478,1.739
	c-9.847-6.456-20.782-22.822-24.641-28.906C458.509,144.037,461.172,139.932,461.832,136.045z M443.244,131.381
	c1.304-2.007,3.639-4.4,7.361-4.4c4.305,0,6.66,3.206,7.027,6.184c0.441,3.581-1.652,8.048-8.845,9.846
	c-0.661,0.165-1.207,0.634-1.468,1.263c-0.262,0.63-0.211,1.346,0.138,1.932c0.517,0.87,11.473,19.152,22.996,29.22
	c-0.285,3.203-0.269,6.923-0.176,9.924c-6.205-6.4-12.942-14.817-20.464-24.217c-2.388-2.983-4.863-6.074-7.428-9.237
	C439.451,145.098,439.79,136.699,443.244,131.381z M291.163,50.073c6.333-4.536,12.887-9.226,23.611-8.252
	c13.008,1.183,18.101,16.385,19.796,23.609c-14.482-5.631-30.431-9.868-48.061-12.165C288.065,52.289,289.598,51.194,291.163,50.073
	z M255.997,34.926c7.279,0,14.305,10.309,17.886,17.056c-5.791-0.427-11.745-0.658-17.886-0.658c-6.141,0-12.095,0.231-17.886,0.658
	C241.692,45.235,248.718,34.926,255.997,34.926z M197.219,41.821c10.728-0.976,17.277,3.716,23.611,8.252
	c1.564,1.121,3.098,2.215,4.654,3.193c-17.633,2.297-33.582,6.535-48.066,12.167C179.104,58.211,184.18,43.007,197.219,41.821z
	 M54.361,133.165c0.367-2.979,2.722-6.184,7.027-6.184c3.722,0,6.057,2.393,7.361,4.4c3.454,5.317,3.794,13.716,0.859,20.517
	c-2.566,3.164-5.041,6.254-7.428,9.237c-7.522,9.4-14.26,17.816-20.464,24.217c0.093-3,0.11-6.722-0.176-9.924
	c11.523-10.068,22.479-28.35,22.996-29.22c0.349-0.586,0.4-1.303,0.138-1.932c-0.262-0.63-0.807-1.098-1.468-1.263
	C56.013,141.212,53.92,136.745,54.361,133.165z M34.746,175.23c-3.181,2.088-6.55,0.63-8.478-1.739
	c-3.788-4.656-1.661-10.561,2.125-14.349c6.261-6.26,15.932-16.725,21.768-23.097c0.659,3.887,3.324,7.992,9.225,10.279
	C55.531,152.408,44.601,168.769,34.746,175.23z M92.933,306.788c0,23.325-18.976,42.303-42.302,42.303S8.33,330.115,8.33,306.788
	c0-23.325,18.976-42.302,42.302-42.302C73.957,264.487,92.933,283.463,92.933,306.788z M385.866,216.951
	c-26.138-35.343-58.668-79.328-129.869-79.328s-103.732,43.985-129.869,79.328c-21.478,29.041-38.442,51.977-69.187,43.302
	c-31.554-8.907-30.692-50.611-30.192-58.958c11.797-3.722,23.787-18.705,38.8-37.464c31.923-39.886,78.961-98.641,168.171-107.144
	c0.132,0.022,0.257,0.06,0.39,0.079c0.468,0.07,0.93-0.021,1.327-0.234c6.622-0.58,13.466-0.893,20.56-0.893
	c7.094,0,13.938,0.313,20.559,0.893c0.397,0.213,0.86,0.304,1.328,0.234c0.133-0.02,0.258-0.056,0.39-0.079
	c89.211,8.503,136.248,67.258,168.171,107.144c15.014,18.76,27.004,33.743,38.801,37.464c0.507,8.346,1.401,50.04-30.193,58.957
	C424.309,268.931,407.344,245.992,385.866,216.951z M461.362,349.091c-23.325,0-42.302-18.976-42.302-42.303
	c0-23.325,18.976-42.302,42.302-42.302s42.303,18.976,42.303,42.302C503.664,330.114,484.687,349.091,461.362,349.091z"/>
<g>
</g>
<g>
</g>
<g>
</g>
<g>
</g>
<g>
</g>
<g>
</g>
<g>
</g>
<g>
</g>
<g>
</g>
<g>
</g>
<g>
</g>
<g>
</g>
<g>
</g>
<g>
</g>
<g>
</g>
</svg>
